<?xml version="1.0" encoding="utf-8"?>
<svg version="1.1" id="Layer_1" xmlns="http://www.w3.org/2000/svg" x="0px" y="0px"
	 viewBox="0 0 40 40" style="enable-background:new 0 0 40 40;" xml:space="preserve">
<style type="text/css">
	.st0{fill:#020000;}
</style>
<path class="st0" d="M38,34.4h-0.8V14.1h-6.4v7L21.9,5.4h8.9v7h6.4v-7H38V34.4z M15.5,24.5c0,0.9-0.3,1.6-1,2.3
	c-0.6,0.6-1.4,0.9-2.3,0.9c-0.9,0-1.6-0.3-2.3-0.9c-0.6-0.6-0.9-1.4-0.9-2.3V5.4h6.4L15.5,24.5L15.5,24.5z M30.8,34.4H13.6
	c2.8-0.6,4.9-1.8,6.3-3.6c1.3-1.6,1.9-3.4,1.9-5.5v-6.6L30.8,34.4z M11,34.4H2V5.4h0.7v20c0,2.1,0.6,3.9,1.9,5.5
	C6.1,32.7,8.2,33.9,11,34.4z"/>
</svg>
